<svg xmlns="http://www.w3.org/2000/svg" xml:space="preserve" version="1.1" id="logo" x="0" y="0" viewBox="0 0 722.8 348.7" role="img" aria-label="HATTON.eu Logo">
  <g id="reticle">
    <path class="square" d="M58.7,103.7v33.7v33.7H65h6.4v-27.4v-27.4h27.4h27.4v-6.4v-6.4H92.5H58.7z M215.9,205.2v27.9V261h-27.8
      h-27.8v6.4v6.4h34.2h34.2v-34.3v-34.3h-6.4H215.9z M160.3,103.7v6.4v6.4h27.8h27.8v27.4v27.4h6.4h6.4v-33.7v-33.7h-34.2H160.3z
       M71.4,261v-27.9v-27.9H65h-6.4v34.3v34.3h33.8h33.8v-6.4V261H98.9H71.4z"/>
  </g>
  <g id="singularity">
    <line class="singularity" fill="none" stroke="#000000" stroke-width="4" stroke-linecap="round" stroke-miterlimit="10" x1="142.5" y1="3.7" x2="145" y2="345"/>
    <polyline class="singularity" fill="none" stroke="#000000" stroke-width="4" stroke-linecap="round" stroke-miterlimit="10" points="
        145,345 145.1,336.7 145.2,330 145.2,323.3 145.3,317.7 145.4,312.1 145.4,307.3 145.5,302.6 145.6,298.5 145.7,294.4 145.7,290.9 
        145.8,287.4 145.9,284.3 145.9,281.2 146,278.5 146.1,275.8 146.1,273.4 146.2,271 146.3,268.8 146.4,266.6 146.4,264.7 
        146.5,262.7 146.6,261 146.6,259.2 146.7,257.6 146.8,256 146.9,254.5 146.9,253.1 147,251.7 147.1,250.4 147.1,249.2 147.2,247.9 
        147.3,246.8 147.3,245.7 147.4,244.6 147.5,243.5 147.6,242.6 147.6,241.6 147.7,240.7 147.8,239.8 147.8,238.9 147.9,238.1 
        148,237.3 148,236.5 148.1,235.7 148.2,235 148.3,234.3 148.3,233.6 148.4,232.9 148.5,232.3 148.5,231.6 148.6,231 148.7,230.4 
        148.8,229.8 148.8,229.3 148.9,228.7 149,228.2 149,227.7 149.1,227.2 149.2,226.7 149.2,226.2 149.3,225.7 149.4,225.3 
        149.5,224.8 149.5,224.4 149.6,224 149.7,223.6 149.7,223.1 149.8,222.8 149.9,222.4 150,222 150,221.6 150.1,221.3 150.2,220.9 
        150.2,220.6 150.3,220.2 150.4,219.9 150.5,219.6 150.5,219.2 150.6,218.9 150.7,218.6 150.7,218.3 150.8,218 150.9,217.7 
        150.9,217.5 151,217.2 151.2,216.7 151.3,216.1 151.4,215.6 151.6,215.2 151.7,214.7 151.9,214.2 152,213.8 152.1,213.4 152.3,213 
        152.4,212.6 152.6,212.2 152.7,211.8 152.8,211.5 153,211.1 153.1,210.8 153.3,210.5 153.4,210.2 153.6,209.9 153.7,209.6 
        153.8,209.3 154,209 154.1,208.7 154.3,208.5 154.4,208.2 154.5,207.9 154.7,207.7 154.8,207.5 155,207.2 155.1,207 155.2,206.8 
        155.4,206.6 155.5,206.3 155.7,206.1 155.8,205.9 156,205.7 156.1,205.5 156.2,205.4 156.4,205.2 156.5,205 156.7,204.8 
        156.8,204.6 156.9,204.5 157.1,204.3 157.2,204.1 157.4,204 157.5,203.8 157.6,203.7 157.8,203.5 157.9,203.4 158.1,203.2 
        158.2,203.1 158.4,203 158.5,202.8 158.6,202.7 158.8,202.6 158.9,202.4 159.1,202.3 159.2,202.2 159.3,202.1 159.5,201.9 
        159.6,201.8 159.8,201.7 159.9,201.6 160,201.5 160.2,201.4 160.3,201.3 160.5,201.2 160.6,201.1 160.8,201 160.9,200.9 161,200.8 
        161.2,200.7 161.3,200.6 161.5,200.5 161.6,200.4 161.7,200.3 161.9,200.2 162,200.1 162.2,200 162.3,199.9 162.4,199.9 
        162.6,199.8 162.7,199.7 162.9,199.6 163,199.5 163.2,199.4 163.3,199.4 163.4,199.3 163.6,199.2 163.7,199.1 163.9,199.1 164,199 
        164.1,198.9 164.3,198.9 164.4,198.8 164.6,198.7 164.7,198.7 164.8,198.6 165,198.5 165.1,198.5 165.3,198.4 165.4,198.3 
        165.6,198.3 165.7,198.2 165.8,198.1 166,198.1 166.1,198 166.3,198 166.4,197.9 166.5,197.9 166.7,197.8 166.8,197.7 167,197.7 
        167.1,197.6 167.2,197.6 167.4,197.5 167.5,197.5 167.7,197.4 167.8,197.4 168,197.3 168.1,197.3 168.2,197.2 168.4,197.2 
        168.5,197.1 168.7,197.1 168.8,197 168.9,197 169.1,196.9 169.2,196.9 169.4,196.9 169.5,196.8 169.6,196.8 169.8,196.7 
        169.9,196.7 170.1,196.6 170.2,196.6 170.4,196.6 170.5,196.5 170.6,196.5 170.8,196.4 170.9,196.4 171.1,196.4 171.2,196.3 
        171.3,196.3 171.5,196.2 171.6,196.2 171.8,196.2 171.9,196.1 172,196.1 172.2,196 172.3,196 172.5,196 172.6,195.9 172.8,195.9 
        172.9,195.9 173,195.8 173.2,195.8 173.3,195.8 173.5,195.7 173.6,195.7 173.7,195.7 173.9,195.6 174,195.6 174.2,195.6 
        174.3,195.5 174.4,195.5 174.6,195.5 174.7,195.5 174.9,195.4 175,195.4 175.2,195.4 175.3,195.3 175.4,195.3 175.6,195.3 
        175.7,195.2 175.9,195.2 176,195.2 176.1,195.2 176.3,195.1 176.4,195.1 176.6,195.1 176.7,195 176.8,195 177,195 177.1,195 
        177.3,194.9 177.4,194.9 177.6,194.9 177.7,194.9 177.8,194.8 178,194.8 178.1,194.8 178.3,194.8 178.4,194.7 178.5,194.7 
        178.7,194.7 178.8,194.7 179,194.6 179.1,194.6 179.2,194.6 179.4,194.6 179.5,194.5 179.7,194.5 179.8,194.5 180,194.5 
        180.1,194.5 180.2,194.4 180.4,194.4 180.5,194.4 180.7,194.4 180.8,194.3 180.9,194.3 181.1,194.3 181.2,194.3 181.4,194.3 
        181.5,194.2 181.6,194.2 181.8,194.2 181.9,194.2 182.1,194.2 182.2,194.1 182.4,194.1 182.5,194.1 182.6,194.1 182.8,194.1 
        182.9,194 183.1,194 183.2,194 183.3,194 183.5,194 183.6,194 183.8,193.9 183.9,193.9 184,193.9 184.2,193.9 184.3,193.9 
        184.5,193.8 184.6,193.8 184.8,193.8 184.9,193.8 185,193.8 185.2,193.8 185.3,193.7 185.5,193.7 185.6,193.7 185.7,193.7 
        185.9,193.7 186,193.7 186.2,193.6 186.3,193.6 186.4,193.6 186.6,193.6 186.7,193.6 186.9,193.6 187,193.5 187.2,193.5 
        187.3,193.5 187.4,193.5 187.6,193.5 187.7,193.5 187.9,193.5 188,193.4 188.1,193.4 188.3,193.4 188.4,193.4 188.6,193.4 
        188.7,193.4 188.8,193.3 189,193.3 189.1,193.3 189.3,193.3 189.4,193.3 189.6,193.3 189.7,193.3 189.8,193.2 190,193.2 
        190.1,193.2 190.3,193.2 190.4,193.2 190.5,193.2 190.7,193.2 190.8,193.2 191,193.1 191.1,193.1 191.2,193.1 191.4,193.1 
        191.5,193.1 191.7,193.1 191.8,193.1 192,193 192.1,193 192.2,193 192.4,193 192.5,193 192.7,193 192.8,193 192.9,193 193.1,193 
        193.2,192.9 193.4,192.9 193.5,192.9 193.6,192.9 193.8,192.9 193.9,192.9 194.1,192.9 194.2,192.9 194.4,192.8 194.5,192.8 
        194.6,192.8 194.8,192.8 194.9,192.8 195.1,192.8 195.2,192.8 195.3,192.8 195.5,192.8 195.6,192.7 195.8,192.7 195.9,192.7 
        196,192.7 196.2,192.7 196.3,192.7 196.5,192.7 196.6,192.7 196.8,192.7 196.9,192.6 197,192.6 197.2,192.6 197.3,192.6 
        197.5,192.6 197.6,192.6 197.7,192.6 197.9,192.6 198,192.6 198.2,192.6 198.3,192.5 198.4,192.5 198.6,192.5 198.7,192.5 
        198.9,192.5 199,192.5 199.2,192.5 199.3,192.5 199.4,192.5 199.6,192.5 199.7,192.4 199.9,192.4 200,192.4 200.1,192.4 
        200.3,192.4 200.4,192.4 200.6,192.4 200.7,192.4 200.8,192.4 201,192.4 201.1,192.4 201.3,192.3 201.4,192.3 201.6,192.3 
        201.7,192.3 201.8,192.3 202,192.3 202.1,192.3 202.3,192.3 202.4,192.3 202.5,192.3 202.7,192.3 202.8,192.3 203,192.2 
        203.1,192.2 203.2,192.2 203.4,192.2 203.5,192.2 203.7,192.2 203.8,192.2 204,192.2 204.1,192.2 204.2,192.2 204.4,192.2 
        204.5,192.2 204.7,192.1 204.8,192.1 204.9,192.1 205.1,192.1 205.2,192.1 205.4,192.1 205.5,192.1 205.6,192.1 205.8,192.1 
        205.9,192.1 206.1,192.1 206.2,192.1 206.3,192.1 206.5,192 206.6,192 206.8,192 206.9,192 207.1,192 207.2,192 207.3,192 
        207.5,192 207.6,192 207.8,192 207.9,192 208,192 208.2,192 208.3,192 208.5,191.9 208.6,191.9 208.8,191.9 208.9,191.9 209,191.9 
        209.2,191.9 209.3,191.9 209.5,191.9 209.6,191.9 209.7,191.9 209.9,191.9 210,191.9 210.2,191.9 210.3,191.9 210.4,191.9 
        210.6,191.8 210.7,191.8 210.9,191.8 211,191.8 211.2,191.8 211.3,191.8 211.4,191.8 211.6,191.8 211.7,191.8 211.9,191.8 
        212,191.8 212.1,191.8 212.3,191.8 212.4,191.8 212.6,191.8 212.7,191.7 212.8,191.7 213,191.7 213.1,191.7 213.3,191.7 
        213.4,191.7 213.6,191.7 213.7,191.7 213.8,191.7 214,191.7 214.1,191.7 214.3,191.7 214.4,191.7 214.5,191.7 214.7,191.7 
        214.8,191.7 215,191.7 215.1,191.6 215.2,191.6 215.4,191.6 215.5,191.6 215.7,191.6 215.8,191.6 216,191.6 216.1,191.6 
        216.2,191.6 216.4,191.6 216.5,191.6 216.7,191.6 216.8,191.6 216.9,191.6 217.1,191.6 217.2,191.6 217.4,191.6 217.5,191.6 
        217.6,191.5 217.8,191.5 217.9,191.5 218.1,191.5 218.2,191.5 218.3,191.5 218.5,191.5 218.6,191.5 218.8,191.5 218.9,191.5 
        219.1,191.5 219.2,191.5 219.3,191.5 219.5,191.5 219.6,191.5 219.8,191.5 219.9,191.5 220,191.5 220.2,191.5 220.3,191.4 
        220.5,191.4 220.6,191.4 220.7,191.4 220.9,191.4 221,191.4 221.2,191.4 221.3,191.4 221.5,191.4 221.6,191.4 221.7,191.4 
        221.9,191.4 222,191.4 222.2,191.4 222.3,191.4 222.4,191.4 222.6,191.4 222.7,191.4 222.9,191.4 223,191.4 223.1,191.4 
        223.3,191.3 223.4,191.3 223.6,191.3 223.7,191.3 223.9,191.3 224,191.3 224.1,191.3 224.3,191.3 224.4,191.3 224.6,191.3 
        224.7,191.3 224.8,191.3 225,191.3 225.1,191.3 225.3,191.3 225.4,191.3 225.5,191.3 225.7,191.3 225.8,191.3 226,191.3 
        226.1,191.3 226.3,191.3 226.4,191.2 226.5,191.2 226.7,191.2 226.8,191.2 227,191.2 227.1,191.2 227.2,191.2 227.4,191.2 
        227.5,191.2 227.7,191.2 227.8,191.2 227.9,191.2 228.1,191.2 228.2,191.2 228.4,191.2 228.5,191.2 228.7,191.2 228.8,191.2 
        228.9,191.2 229.1,191.2 229.2,191.2 229.4,191.2 229.5,191.2 229.6,191.2 229.8,191.1 229.9,191.1 230.1,191.1 230.2,191.1 
        230.3,191.1 230.5,191.1 230.6,191.1 230.8,191.1 230.9,191.1 231.1,191.1 231.2,191.1 231.3,191.1 231.5,191.1 231.6,191.1 
        231.8,191.1 231.9,191.1 232,191.1 232.2,191.1 232.3,191.1 232.5,191.1 232.6,191.1 232.7,191.1 232.9,191.1 233,191.1 
        233.2,191.1 233.3,191.1 233.5,191 233.6,191 233.7,191 233.9,191 234,191 234.2,191 234.3,191 234.4,191 234.6,191 234.7,191 
        234.9,191 235,191 235.1,191 235.3,191 235.4,191 235.6,191 235.7,191 235.9,191 236,191 236.1,191 236.3,191 236.4,191 236.6,191 
        236.7,191 236.8,191 237,191 237.1,191 237.3,191 237.4,191 237.5,190.9 237.7,190.9 237.8,190.9 238,190.9 238.1,190.9 
        238.3,190.9 238.4,190.9 238.5,190.9 238.7,190.9 238.8,190.9 239,190.9 239.1,190.9 239.2,190.9 239.4,190.9 239.5,190.9 
        239.7,190.9 239.8,190.9 239.9,190.9 240.1,190.9 240.2,190.9 240.4,190.9 240.5,190.9 240.7,190.9 240.8,190.9 240.9,190.9 
        241.1,190.9 241.2,190.9 241.4,190.9 241.5,190.9 241.6,190.9 241.8,190.9 241.9,190.8 242.1,190.8 242.2,190.8 242.3,190.8 
        242.5,190.8 242.6,190.8 242.8,190.8 242.9,190.8 243.1,190.8 243.2,190.8 243.3,190.8 243.5,190.8 243.6,190.8 243.8,190.8 
        243.9,190.8 244,190.8 244.2,190.8 244.3,190.8 244.5,190.8 244.6,190.8 244.7,190.8 244.9,190.8 245,190.8 245.2,190.8 
        245.3,190.8 245.5,190.8 245.6,190.8 245.7,190.8 245.9,190.8 246,190.8 246.2,190.8 246.3,190.8 246.4,190.8 246.6,190.8 
        246.7,190.8 246.9,190.7 247,190.7 247.1,190.7 247.3,190.7 247.4,190.7 247.6,190.7 247.7,190.7 247.9,190.7 248,190.7 
        248.1,190.7 248.3,190.7 248.4,190.7 248.6,190.7 248.7,190.7 248.8,190.7 249,190.7 249.1,190.7 249.3,190.7 249.4,190.7 
        249.5,190.7 249.7,190.7 249.8,190.7 250,190.7 250.1,190.7 250.3,190.7 250.4,190.7 250.5,190.7 250.7,190.7 250.8,190.7 
        251,190.7 251.1,190.7 251.2,190.7 251.4,190.7 251.5,190.7 251.7,190.7 251.8,190.7 251.9,190.7 252.1,190.6 252.2,190.6 
        252.4,190.6 252.5,190.6 252.7,190.6 252.8,190.6 252.9,190.6 253.1,190.6 253.2,190.6 253.4,190.6 253.5,190.6 253.6,190.6 
        253.8,190.6 253.9,190.6 254.1,190.6 254.2,190.6 254.3,190.6 254.5,190.6 254.6,190.6 254.8,190.6 254.9,190.6 255.1,190.6 
        255.2,190.6 255.3,190.6 255.5,190.6 255.6,190.6 255.8,190.6 255.9,190.6 256,190.6 256.2,190.6 256.3,190.6 256.5,190.6 
        256.6,190.6 256.7,190.6 256.9,190.6 257,190.6 257.2,190.6 257.3,190.6 257.5,190.6 257.6,190.6 257.7,190.6 257.9,190.6 
        258,190.5 258.2,190.5 258.3,190.5 258.4,190.5 258.6,190.5 258.7,190.5 258.9,190.5 259,190.5 259.1,190.5 259.3,190.5 
        259.4,190.5 259.6,190.5 259.7,190.5 259.9,190.5 260,190.5 260.1,190.5 260.3,190.5 260.4,190.5 260.6,190.5 260.7,190.5 
        260.8,190.5 261,190.5 261.1,190.5 261.3,190.5 261.4,190.5 261.5,190.5 261.7,190.5 261.8,190.5 262,190.5 262.1,190.5 
        262.3,190.5 262.4,190.5 262.5,190.5 262.7,190.5 262.8,190.5 263,190.5 263.1,190.5 263.2,190.5 263.4,190.5 263.5,190.5 
        263.7,190.5 263.8,190.5 263.9,190.5 264.1,190.5 264.2,190.5 264.4,190.5 264.5,190.4 264.7,190.4 264.8,190.4 264.9,190.4 
        265.1,190.4 265.2,190.4 265.4,190.4 265.5,190.4 265.6,190.4 265.8,190.4 265.9,190.4 266.1,190.4 266.2,190.4 266.3,190.4 
        266.5,190.4 266.6,190.4 266.8,190.4 266.9,190.4 267,190.4 267.2,190.4 267.3,190.4 267.5,190.4 267.6,190.4 267.8,190.4 
        267.9,190.4 268,190.4 268.2,190.4 268.3,190.4 268.5,190.4 268.6,190.4 268.7,190.4 268.9,190.4 269,190.4 269.2,190.4 
        269.3,190.4 269.4,190.4 269.6,190.4 269.7,190.4 269.9,190.4 270,190.4 270.2,190.4 270.3,190.4 270.4,190.4 270.6,190.4 
        270.7,190.4 270.9,190.4 271,190.4 271.1,190.4 271.3,190.4 271.4,190.4 271.6,190.4 271.7,190.4 271.8,190.4 272,190.4 
        272.1,190.3 272.3,190.3 272.4,190.3 272.6,190.3 272.7,190.3 272.8,190.3 273,190.3 273.1,190.3 273.3,190.3 273.4,190.3 
        273.5,190.3 273.7,190.3 273.8,190.3 274,190.3 274.1,190.3 274.2,190.3 274.4,190.3 274.5,190.3 274.7,190.3 274.8,190.3 
        275,190.3 275.1,190.3 275.2,190.3 275.4,190.3 275.5,190.3 275.7,190.3 275.8,190.3 275.9,190.3 276.1,190.3 276.2,190.3 
        276.4,190.3 276.5,190.3 276.7,190.3 276.8,190.3 276.9,190.3 277.1,190.3 277.2,190.3 277.4,190.3 277.5,190.3 277.6,190.3 
        277.8,190.3 277.9,190.3 278.1,190.3 278.2,190.3 278.3,190.3 278.5,190.3 278.6,190.3 278.8,190.3 278.9,190.3 279,190.3 
        279.2,190.3 279.3,190.3 279.5,190.3 279.6,190.3 279.8,190.3 279.9,190.3 280,190.3 280.2,190.3 280.3,190.2 280.5,190.2 
        280.6,190.2 280.7,190.2 280.9,190.2 281,190.2 281.2,190.2 281.3,190.2 281.4,190.2 281.6,190.2 281.7,190.2 281.9,190.2 
        282,190.2 282.2,190.2 282.3,190.2 282.4,190.2 282.6,190.2 282.7,190.2 282.9,190.2 283,190.2 283.1,190.2 283.3,190.2 
        283.4,190.2 283.6,190.2 283.7,190.2 283.8,190.2 284,190.2 284.1,190.2 284.3,190.2 284.4,190.2 284.6,190.2 284.7,190.2 
        284.8,190.2 285,190.2 285.1,190.2 285.3,190.2 285.4,190.2 285.5,190.2 285.7,190.2 285.8,190.2 286,190.2 286.1,190.2 
        286.2,190.2 286.4,190.2 286.5,190.2 286.7,190.2 286.8,190.2 287,190.2 287.1,190.2 287.2,190.2 287.4,190.2 287.5,190.2 
        287.7,190.2 287.8,190.2 287.9,190.2 288.1,190.2 288.2,190.2 288.4,190.2 288.5,190.2 288.6,190.2 288.8,190.2 288.9,190.2 
        289.1,190.2 289.2,190.2 289.4,190.2 289.5,190.2 289.6,190.2 289.8,190.2 289.9,190.2 290.1,190.1 290.2,190.1 290.3,190.1 
        290.5,190.1 290.6,190.1 290.8,190.1 290.9,190.1 291,190.1 291.2,190.1 291.3,190.1 291.5,190.1 291.6,190.1 291.8,190.1 
        291.9,190.1 292,190.1 292.2,190.1 292.3,190.1 292.5,190.1 292.6,190.1 292.7,190.1 292.9,190.1 293,190.1 293.2,190.1 
        293.3,190.1 293.4,190.1 293.6,190.1 293.7,190.1 293.9,190.1 294,190.1 294.2,190.1 294.3,190.1 294.4,190.1 294.6,190.1 
        294.7,190.1 294.9,190.1 295,190.1 295.1,190.1 295.3,190.1 295.4,190.1 295.6,190.1 295.7,190.1 295.8,190.1 296,190.1 
        296.1,190.1 296.3,190.1 296.4,190.1 296.6,190.1 296.7,190.1 296.8,190.1 297,190.1 297.1,190.1 297.3,190.1 297.4,190.1 
        297.5,190.1 297.7,190.1 297.8,190.1 298,190.1 298.1,190.1 298.2,190.1 298.4,190.1 298.5,190.1 298.7,190.1 298.8,190.1 
        299,190.1 299.1,190.1 299.2,190.1 299.4,190.1 299.5,190.1 299.7,190.1 299.8,190.1 299.9,190.1 300.1,190.1 300.2,190.1 
        300.4,190.1 300.5,190.1 300.6,190.1 300.8,190.1 300.9,190.1 301.1,190 301.2,190 301.4,190 301.5,190 301.6,190 301.8,190 
        301.9,190 302.1,190 302.2,190 302.3,190 302.5,190 302.6,190 302.8,190 302.9,190 303,190 303.2,190 303.3,190 303.5,190 
        303.6,190 303.8,190 303.9,190 304,190 304.2,190 304.3,190 304.5,190 304.6,190 304.7,190 304.9,190 305,190 305.2,190 305.3,190 
        305.4,190 305.6,190 305.7,190 305.9,190 306,190 306.2,190 306.3,190 306.4,190 306.6,190 306.7,190 306.9,190 307,190 307.1,190 
        307.3,190 307.4,190 307.6,190 307.7,190 307.8,190 308,190 308.1,190 308.3,190 308.4,190 308.6,190 308.7,190 308.8,190 309,190 
        309.1,190 309.3,190 309.4,190 309.5,190 309.7,190 309.8,190 310,190 310.1,190 310.2,190 310.4,190 310.5,190 310.7,190 
        310.8,190 311,190 311.1,190 311.2,190 311.4,190 311.5,190 311.7,190 311.8,190 311.9,190 312.1,190 312.2,190 312.4,190 
        312.5,190 312.6,190 312.8,190 312.9,190 313.1,190 313.2,190 313.4,190 313.5,190 313.6,190 313.8,190 313.9,189.9 314.1,189.9 
        314.2,189.9 314.3,189.9 314.5,189.9 314.6,189.9 314.8,189.9 314.9,189.9 315,189.9 315.2,189.9 315.3,189.9 315.5,189.9 
        315.6,189.9 315.8,189.9 315.9,189.9 316,189.9 316.2,189.9 316.3,189.9 316.5,189.9 316.6,189.9 316.7,189.9 316.9,189.9 
        317,189.9 317.2,189.9 317.3,189.9 317.4,189.9 317.6,189.9 317.7,189.9 317.9,189.9 318,189.9 318.2,189.9 318.3,189.9 
        318.4,189.9 318.6,189.9 318.7,189.9 318.9,189.9 319,189.9 319.1,189.9 319.3,189.9 319.4,189.9 319.6,189.9 319.7,189.9 
        319.8,189.9 320,189.9 320.1,189.9 320.3,189.9 320.4,189.9 320.6,189.9 320.7,189.9 320.8,189.9 321,189.9 321.1,189.9 
        321.3,189.9 321.4,189.9 321.5,189.9 321.7,189.9 321.8,189.9 322,189.9 322.1,189.9 322.2,189.9 322.4,189.9 322.5,189.9 
        322.7,189.9 322.8,189.9 323,189.9 323.1,189.9 323.2,189.9 323.4,189.9 323.5,189.9 323.7,189.9 323.8,189.9 323.9,189.9 
        324.1,189.9 324.2,189.9 324.4,189.9 324.5,189.9 324.6,189.9 324.8,189.9 324.9,189.9 325.1,189.9 325.2,189.9 325.4,189.9 
        325.5,189.9 325.6,189.9 325.8,189.9 325.9,189.9 326.1,189.9 326.2,189.9 326.3,189.9 326.5,189.9 326.6,189.9 326.8,189.9 
        326.9,189.9 327,189.9 327.2,189.9 327.3,189.9 327.5,189.9 327.6,189.9 327.8,189.9 327.9,189.9 328,189.9 328.2,189.9 
        328.3,189.9 328.5,189.9 328.6,189.9 328.7,189.9 328.9,189.9 329,189.8 329.2,189.8 329.3,189.8 329.4,189.8 329.6,189.8 
        329.7,189.8 329.9,189.8 330,189.8 330.2,189.8 330.3,189.8 330.4,189.8 330.6,189.8 330.7,189.8 330.9,189.8 331,189.8 
        331.1,189.8 331.3,189.8 331.4,189.8 331.6,189.8 331.7,189.8 331.8,189.8 332,189.8 332.1,189.8 332.3,189.8 332.4,189.8 
        332.5,189.8 332.7,189.8 332.8,189.8 333,189.8 333.1,189.8 333.3,189.8 333.4,189.8 333.5,189.8 333.7,189.8 333.8,189.8 
        334,189.8 334.1,189.8 334.2,189.8 334.4,189.8 334.5,189.8 334.7,189.8 334.8,189.8 334.9,189.8 335.1,189.8 335.2,189.8 
        335.4,189.8 335.5,189.8 335.7,189.8 335.8,189.8 335.9,189.8 336.1,189.8 336.2,189.8 336.4,189.8 336.5,189.8 336.6,189.8 
        336.8,189.8 336.9,189.8 337.1,189.8 337.2,189.8 337.3,189.8 337.5,189.8 337.6,189.8 337.8,189.8 337.9,189.8 338.1,189.8 
        338.2,189.8 338.3,189.8 338.5,189.8 338.6,189.8 338.8,189.8 338.9,189.8 339,189.8 339.2,189.8 339.3,189.8 339.5,189.8 
        339.6,189.8 339.7,189.8 339.9,189.8 340,189.8 340.2,189.8 340.3,189.8 340.5,189.8 340.6,189.8 340.7,189.8 340.9,189.8 
        341,189.8 341.2,189.8 341.3,189.8 341.4,189.8 341.6,189.8 341.7,189.8 341.9,189.8 342,189.8 342.1,189.8 342.3,189.8 
        342.4,189.8 342.6,189.8 342.7,189.8 342.9,189.8 343,189.8 343.1,189.8 343.3,189.8 343.4,189.8 343.6,189.8 343.7,189.8 
        343.8,189.8 344,189.8 344.1,189.8 344.3,189.8 344.4,189.8 344.5,189.8 344.7,189.8 344.8,189.8 345,189.8 345.1,189.8 
        345.3,189.8 345.4,189.8 345.5,189.8 345.7,189.8 345.8,189.8 346,189.8 346.1,189.8 346.2,189.8 346.4,189.8 346.5,189.8 
        346.7,189.8 346.8,189.8 346.9,189.8 347.1,189.7 347.2,189.7 347.4,189.7 347.5,189.7 347.7,189.7 347.8,189.7 347.9,189.7 
        348.1,189.7 348.2,189.7 348.4,189.7 348.5,189.7 348.6,189.7 348.8,189.7 348.9,189.7 349.1,189.7 349.2,189.7 349.3,189.7 
        349.5,189.7 349.6,189.7 349.8,189.7 349.9,189.7 350.1,189.7 350.2,189.7 350.3,189.7 350.5,189.7 350.6,189.7 350.8,189.7 
        350.9,189.7 351,189.7 351.2,189.7 351.3,189.7 351.5,189.7 351.6,189.7 351.7,189.7 351.9,189.7 352,189.7 352.2,189.7 
        352.3,189.7 352.5,189.7 352.6,189.7 352.7,189.7 352.9,189.7 353,189.7 353.2,189.7 353.3,189.7 353.4,189.7 353.6,189.7 
        353.7,189.7 353.9,189.7 354,189.7 354.1,189.7 354.3,189.7 354.4,189.7 354.6,189.7 354.7,189.7 354.9,189.7 355,189.7 
        355.1,189.7 355.3,189.7 355.4,189.7 355.6,189.7 355.7,189.7 355.8,189.7 356,189.7 356.1,189.7 356.3,189.7 356.4,189.7 
        356.5,189.7 356.7,189.7 356.8,189.7 357,189.7 357.1,189.7 357.3,189.7 357.4,189.7 357.5,189.7 357.7,189.7 357.8,189.7 
        358,189.7 358.1,189.7 358.2,189.7 358.4,189.7 358.5,189.7 358.7,189.7 358.8,189.7 358.9,189.7 359.1,189.7 359.2,189.7 
        359.4,189.7 359.5,189.7 359.7,189.7 359.8,189.7 359.9,189.7 360.1,189.7 360.2,189.7 360.4,189.7 360.5,189.7 360.6,189.7 
        360.8,189.7 360.9,189.7 361.1,189.7 361.2,189.7 361.3,189.7 361.5,189.7 361.6,189.7 361.8,189.7 361.9,189.7 362.1,189.7 
        362.2,189.7 362.3,189.7 362.5,189.7 362.6,189.7 362.8,189.7 362.9,189.7 363,189.7 363.2,189.7 363.3,189.7 363.5,189.7 
        363.6,189.7 363.7,189.7 363.9,189.7 364,189.7 364.2,189.7 364.3,189.7 364.5,189.7 364.6,189.7 364.7,189.7 364.9,189.7 
        365,189.7 365.2,189.7 365.3,189.7 365.4,189.7 365.6,189.7 365.7,189.7 365.9,189.7 366,189.7 366.1,189.7 366.3,189.7 
        366.4,189.7 366.6,189.7 366.7,189.7 366.9,189.7 367,189.7 367.1,189.7 367.3,189.7 367.4,189.7 367.6,189.7 367.7,189.7 
        367.8,189.7 368,189.7 368.1,189.7 368.3,189.7 368.4,189.7 368.5,189.7 368.7,189.7 368.8,189.6 369,189.6 369.1,189.6 
        369.3,189.6 369.4,189.6 369.5,189.6 369.7,189.6 369.8,189.6 370,189.6 370.1,189.6 370.2,189.6 370.4,189.6 370.5,189.6 
        370.7,189.6 370.8,189.6 370.9,189.6 371.1,189.6 371.2,189.6 371.4,189.6 371.5,189.6 371.7,189.6 371.8,189.6 371.9,189.6 
        372.1,189.6 372.2,189.6 372.4,189.6 372.5,189.6 372.6,189.6 372.8,189.6 372.9,189.6 373.1,189.6 373.2,189.6 373.3,189.6 
        373.5,189.6 373.6,189.6 373.8,189.6 373.9,189.6 374.1,189.6 374.2,189.6 374.3,189.6 374.5,189.6 374.6,189.6 374.8,189.6 
        374.9,189.6 375,189.6 375.2,189.6 375.3,189.6 375.5,189.6 375.6,189.6 375.7,189.6 375.9,189.6 376,189.6 376.2,189.6 
        376.3,189.6 376.5,189.6 376.6,189.6 376.7,189.6 376.9,189.6 377,189.6 377.2,189.6 377.3,189.6 377.4,189.6 377.6,189.6 
        377.7,189.6 377.9,189.6 378,189.6 378.1,189.6 378.3,189.6 378.4,189.6 378.6,189.6 378.7,189.6 378.9,189.6 379,189.6 
        379.1,189.6 379.3,189.6 379.4,189.6 379.6,189.6 379.7,189.6 379.8,189.6 380,189.6 380.1,189.6 380.3,189.6 380.4,189.6 
        380.5,189.6 380.7,189.6 380.8,189.6 381,189.6 381.1,189.6 381.2,189.6 381.4,189.6 381.5,189.6 381.7,189.6 381.8,189.6 
        382,189.6 382.1,189.6 382.2,189.6 382.4,189.6 382.5,189.6 382.7,189.6 382.8,189.6 382.9,189.6 383.1,189.6 383.2,189.6 
        383.4,189.6 383.5,189.6 383.6,189.6 383.8,189.6 383.9,189.6 384.1,189.6 384.2,189.6 384.4,189.6 384.5,189.6 384.6,189.6 
        384.8,189.6 384.9,189.6 385.1,189.6 385.2,189.6 385.3,189.6 385.5,189.6 385.6,189.6 385.8,189.6 385.9,189.6 386.1,189.6 
        386.2,189.6 386.3,189.6 386.5,189.6 386.6,189.6 386.8,189.6 386.9,189.6 387,189.6 387.2,189.6 387.3,189.6 387.5,189.6 
        387.6,189.6 387.7,189.6 387.9,189.6 388,189.6 388.2,189.6 388.3,189.6 388.5,189.6 388.6,189.6 388.7,189.6 388.9,189.6 
        389,189.6 389.2,189.6 389.3,189.6 389.4,189.6 389.6,189.6 389.7,189.6 389.9,189.6 390,189.6 390.1,189.6 390.3,189.6 
        390.4,189.6 390.6,189.6 390.7,189.6 390.8,189.6 391,189.6 391.1,189.6 391.3,189.6 391.4,189.6 391.6,189.6 391.7,189.6 
        391.8,189.6 392,189.6 392.1,189.6 392.3,189.6 392.4,189.6 392.5,189.6 392.7,189.6 392.8,189.6 393,189.6 393.1,189.6 
        393.2,189.6 393.4,189.6 393.5,189.6 393.7,189.6 393.8,189.6 394,189.6 394.1,189.6 394.2,189.6 394.4,189.6 394.5,189.6 
        394.7,189.6 394.8,189.6 394.9,189.6 395.1,189.6 395.2,189.6 395.4,189.6 395.5,189.5 395.6,189.5 395.8,189.5 395.9,189.5 
        396.1,189.5 396.2,189.5 396.4,189.5 396.5,189.5 396.6,189.5 396.8,189.5 396.9,189.5 397.1,189.5 397.2,189.5 397.3,189.5 
        397.5,189.5 397.6,189.5 397.8,189.5 397.9,189.5 398,189.5 398.2,189.5 398.3,189.5 398.5,189.5 398.6,189.5 398.8,189.5 
        398.9,189.5 399,189.5 399.2,189.5 399.3,189.5 399.5,189.5 399.6,189.5 399.7,189.5 399.9,189.5 400,189.5 400.2,189.5 
        400.3,189.5 400.4,189.5 400.6,189.5 400.7,189.5 400.9,189.5 401,189.5 401.2,189.5 401.3,189.5 401.4,189.5 401.6,189.5 
        401.7,189.5 401.9,189.5 402,189.5 402.1,189.5 402.3,189.5 402.4,189.5 402.6,189.5 402.7,189.5 402.8,189.5 403,189.5 
        403.1,189.5 403.3,189.5 403.4,189.5 403.6,189.5 403.7,189.5 403.8,189.5 404,189.5 404.1,189.5 404.3,189.5 404.4,189.5 
        404.5,189.5 404.7,189.5 404.8,189.5 405,189.5 405.1,189.5 405.2,189.5 405.4,189.5 405.5,189.5 405.7,189.5 405.8,189.5 
        406,189.5 406.1,189.5 406.2,189.5 406.4,189.5 406.5,189.5 406.7,189.5 406.8,189.5 406.9,189.5 407.1,189.5 407.2,189.5 
        407.4,189.5 407.5,189.5 407.6,189.5 407.8,189.5 407.9,189.5 408.1,189.5 408.2,189.5 408.4,189.5 408.5,189.5 408.6,189.5 
        408.8,189.5 408.9,189.5 409.1,189.5 409.2,189.5 409.3,189.5 409.5,189.5 409.6,189.5 409.8,189.5 409.9,189.5 410,189.5 
        410.2,189.5 410.3,189.5 410.5,189.5 410.6,189.5 410.8,189.5 410.9,189.5 411,189.5 411.2,189.5 411.3,189.5 411.5,189.5 
        411.6,189.5 411.7,189.5 411.9,189.5 412,189.5 412.2,189.5 412.3,189.5 412.4,189.5 412.6,189.5 412.7,189.5 412.9,189.5 
        413,189.5 413.2,189.5 413.3,189.5 413.4,189.5 413.6,189.5 413.7,189.5 413.9,189.5 414,189.5 414.1,189.5 414.3,189.5 
        414.4,189.5 414.6,189.5 414.7,189.5 414.8,189.5 415,189.5 415.1,189.5 415.3,189.5 415.4,189.5 415.6,189.5 415.7,189.5 
        415.8,189.5 416,189.5 416.1,189.5 416.3,189.5 416.4,189.5 416.5,189.5 416.7,189.5 416.8,189.5 417,189.5 417.1,189.5 
        417.2,189.5 417.4,189.5 417.5,189.5 417.7,189.5 417.8,189.5 418,189.5 418.1,189.5 418.2,189.5 418.4,189.5 418.5,189.5 
        418.7,189.5 418.8,189.5 418.9,189.5 419.1,189.5 419.2,189.5 419.4,189.5 419.5,189.5 419.6,189.5 419.8,189.5 419.9,189.5 
        420.1,189.5 420.2,189.5 420.4,189.5 420.5,189.5 420.6,189.5 420.8,189.5 420.9,189.5 421.1,189.5 421.2,189.5 421.3,189.5 
        421.5,189.5 421.6,189.5 421.8,189.5 421.9,189.5 422,189.5 422.2,189.5 422.3,189.5 422.5,189.5 422.6,189.5 422.8,189.5 
        422.9,189.5 423,189.5 423.2,189.5 423.3,189.5 423.5,189.5 423.6,189.5 423.7,189.5 423.9,189.5 424,189.5 424.2,189.5 
        424.3,189.5 424.4,189.5 424.6,189.5 424.7,189.5 424.9,189.5 425,189.5 425.2,189.5 425.3,189.5 425.4,189.5 425.6,189.5 
        425.7,189.5 425.9,189.5 426,189.5 426.1,189.5 426.3,189.5 426.4,189.5 426.6,189.5 426.7,189.5 426.8,189.5 427,189.5 
        427.1,189.5 427.3,189.5 427.4,189.5 427.6,189.5 427.7,189.5 427.8,189.5 428,189.5 428.1,189.5 428.3,189.5 428.4,189.5 
        428.5,189.5 428.7,189.5 428.8,189.5 429,189.5 429.1,189.5 429.2,189.5 429.4,189.5 429.5,189.5 429.7,189.5 429.8,189.5 
        430,189.5 430.1,189.5 430.2,189.5 430.4,189.5 430.5,189.4 430.7,189.4 430.8,189.4 430.9,189.4 431.1,189.4 431.2,189.4 
        431.4,189.4 431.5,189.4 431.6,189.4 431.8,189.4 431.9,189.4 432.1,189.4 432.2,189.4 432.4,189.4 432.5,189.4 432.6,189.4 
        432.8,189.4 432.9,189.4 433.1,189.4 433.2,189.4 433.3,189.4 433.5,189.4 433.6,189.4 433.8,189.4 433.9,189.4 434,189.4 
        434.2,189.4 434.3,189.4 434.5,189.4 434.6,189.4 434.8,189.4 434.9,189.4 435,189.4 435.2,189.4 435.3,189.4 435.5,189.4 
        435.6,189.4 435.7,189.4 435.9,189.4 436,189.4 436.2,189.4 436.3,189.4 436.4,189.4 436.6,189.4 436.7,189.4 436.9,189.4 
        437,189.4 437.2,189.4 437.3,189.4 437.4,189.4 437.6,189.4 437.7,189.4 437.9,189.4 438,189.4 438.1,189.4 438.3,189.4 
        438.4,189.4 438.6,189.4 438.7,189.4 438.8,189.4 439,189.4 439.1,189.4 439.3,189.4 439.4,189.4 439.6,189.4 439.7,189.4 
        439.8,189.4 440,189.4 440.1,189.4 440.3,189.4 440.4,189.4 440.5,189.4 440.7,189.4 440.8,189.4 441,189.4 441.1,189.4 
        441.2,189.4 441.4,189.4 441.5,189.4 441.7,189.4 441.8,189.4 442,189.4 442.1,189.4 442.2,189.4 442.4,189.4 442.5,189.4 
        442.7,189.4 442.8,189.4 442.9,189.4 443.1,189.4 443.2,189.4 443.4,189.4 443.5,189.4 443.6,189.4 443.8,189.4 443.9,189.4 
        444.1,189.4 444.2,189.4 444.3,189.4 444.5,189.4 444.6,189.4 444.8,189.4 444.9,189.4 445.1,189.4 445.2,189.4 445.3,189.4 
        445.5,189.4 445.6,189.4 445.8,189.4 445.9,189.4 446,189.4 446.2,189.4 446.3,189.4 446.5,189.4 446.6,189.4 446.7,189.4 
        446.9,189.4 447,189.4 447.2,189.4 447.3,189.4 447.5,189.4 447.6,189.4 447.7,189.4 447.9,189.4 448,189.4 448.2,189.4 
        448.3,189.4 448.4,189.4 448.6,189.4 448.7,189.4 448.9,189.4 449,189.4 449.1,189.4 449.3,189.4 449.4,189.4 449.6,189.4 
        449.7,189.4 449.9,189.4 450,189.4 450.1,189.4 450.3,189.4 450.4,189.4 450.6,189.4 450.7,189.4 450.8,189.4 451,189.4 
        451.1,189.4 451.3,189.4 451.4,189.4 451.5,189.4 451.7,189.4 451.8,189.4 452,189.4 452.1,189.4 452.3,189.4 452.4,189.4 
        452.5,189.4 452.7,189.4 452.8,189.4 453,189.4 453.1,189.4 453.2,189.4 453.4,189.4 453.5,189.4 453.7,189.4 453.8,189.4 
        454,189.4 454.1,189.4 454.2,189.4 454.4,189.4 454.5,189.4 454.7,189.4 454.8,189.4 454.9,189.4 455.1,189.4 455.2,189.4 
        455.4,189.4 455.5,189.4 455.6,189.4 455.8,189.4 455.9,189.4 456.1,189.4 456.2,189.4 456.3,189.4 456.5,189.4 456.6,189.4 
        456.8,189.4 456.9,189.4 457.1,189.4 457.2,189.4 457.3,189.4 457.5,189.4 457.6,189.4 457.8,189.4 457.9,189.4 458,189.4 
        458.2,189.4 458.3,189.4 458.5,189.4 458.6,189.4 458.7,189.4 458.9,189.4 459,189.4 459.2,189.4 459.3,189.4 459.5,189.4 
        459.6,189.4 459.7,189.4 459.9,189.4 460,189.4 460.2,189.4 460.3,189.4 460.4,189.4 460.6,189.4 460.7,189.4 460.9,189.4 
        461,189.4 461.1,189.4 461.3,189.4 461.4,189.4 461.6,189.4 461.7,189.4 461.9,189.4 462,189.4 462.1,189.4 462.3,189.4 
        462.4,189.4 462.6,189.4 462.7,189.4 462.8,189.4 463,189.4 463.1,189.4 463.3,189.4 463.4,189.4 463.5,189.4 463.7,189.4 
        463.8,189.4 464,189.4 464.1,189.4 464.3,189.4 464.4,189.4 464.5,189.4 464.7,189.4 464.8,189.4 465,189.4 465.1,189.4 
        465.2,189.4 465.4,189.4 465.5,189.4 465.7,189.4 465.8,189.4 465.9,189.4 466.1,189.4 466.2,189.4 466.4,189.4 466.5,189.4 
        466.7,189.4 466.8,189.4 466.9,189.4 467.1,189.4 467.2,189.4 467.4,189.4 467.5,189.4 467.6,189.4 467.8,189.4 467.9,189.4 
        468.1,189.4 468.2,189.4 468.3,189.4 468.5,189.4 468.6,189.4 468.8,189.4 468.9,189.4 469.1,189.4 469.2,189.4 469.3,189.4 
        469.5,189.4 469.6,189.4 469.8,189.4 469.9,189.4 470,189.4 470.2,189.4 470.3,189.4 470.5,189.4 470.6,189.4 470.7,189.4 
        470.9,189.4 471,189.4 471.2,189.4 471.3,189.4 471.5,189.4 471.6,189.4 471.7,189.4 471.9,189.4 472,189.4 472.2,189.4 
        472.3,189.4 472.4,189.4 472.6,189.4 472.7,189.4 472.9,189.4 473,189.4 473.1,189.4 473.3,189.4 473.4,189.4 473.6,189.4 
        473.7,189.4 473.9,189.4 474,189.4 474.1,189.4 474.3,189.4 474.4,189.4 474.6,189.4 474.7,189.4 474.8,189.4 475,189.4 
        475.1,189.4 475.3,189.4 475.4,189.4 475.5,189.4 475.7,189.4 475.8,189.4 476,189.4 476.1,189.4 476.3,189.4 476.4,189.3 
        476.5,189.3 476.7,189.3 476.8,189.3 477,189.3 477.1,189.3 477.2,189.3 477.4,189.3 477.5,189.3 477.7,189.3 477.8,189.3 
        477.9,189.3 478.1,189.3 478.2,189.3 478.4,189.3 478.5,189.3 478.7,189.3 478.8,189.3 478.9,189.3 479.1,189.3 479.2,189.3 
        479.4,189.3 479.5,189.3 479.6,189.3 479.8,189.3 479.9,189.3 480.1,189.3 480.2,189.3 480.3,189.3 480.5,189.3 480.6,189.3 
        480.8,189.3 480.9,189.3 481.1,189.3 481.2,189.3 481.3,189.3 481.5,189.3 481.6,189.3 481.8,189.3 481.9,189.3 482,189.3 
        482.2,189.3 482.3,189.3 482.5,189.3 482.6,189.3 482.7,189.3 482.9,189.3 483,189.3 483.2,189.3 483.3,189.3 483.5,189.3 
        483.6,189.3 483.7,189.3 483.9,189.3 484,189.3 484.2,189.3 484.3,189.3 484.4,189.3 484.6,189.3 484.7,189.3 484.9,189.3 
        485,189.3 485.1,189.3 485.3,189.3 485.4,189.3 485.6,189.3 485.7,189.3 485.9,189.3 486,189.3 486.1,189.3 486.3,189.3 
        486.4,189.3 486.6,189.3 486.7,189.3 486.8,189.3 487,189.3 487.1,189.3 487.3,189.3 487.4,189.3 487.5,189.3 487.7,189.3 
        487.8,189.3 488,189.3 488.1,189.3 488.3,189.3 488.4,189.3 488.5,189.3 488.7,189.3 488.8,189.3 489,189.3 489.1,189.3 
        489.2,189.3 489.4,189.3 489.5,189.3 489.7,189.3 489.8,189.3 489.9,189.3 490.1,189.3 490.2,189.3 490.4,189.3 490.5,189.3 
        490.7,189.3 490.8,189.3 490.9,189.3 491.1,189.3 491.2,189.3 491.4,189.3 491.5,189.3 491.6,189.3 491.8,189.3 491.9,189.3 
        492.1,189.3 492.2,189.3 492.3,189.3 492.5,189.3 492.6,189.3 492.8,189.3 492.9,189.3 493.1,189.3 493.2,189.3 493.3,189.3 
        493.5,189.3 493.6,189.3 493.8,189.3 493.9,189.3 494,189.3 494.2,189.3 494.3,189.3 494.5,189.3 494.6,189.3 494.7,189.3 
        494.9,189.3 495,189.3 495.2,189.3 495.3,189.3 495.4,189.3 495.6,189.3 495.7,189.3 495.9,189.3 496,189.3 496.2,189.3 
        496.3,189.3 496.4,189.3 496.6,189.3 496.7,189.3 496.9,189.3 497,189.3 497.1,189.3 497.3,189.3 497.4,189.3 497.6,189.3 
        497.7,189.3 497.8,189.3 498,189.3 498.1,189.3 498.3,189.3 498.4,189.3 498.6,189.3 498.7,189.3 498.8,189.3 499,189.3 
        499.1,189.3 499.3,189.3 499.4,189.3 499.5,189.3 499.7,189.3 499.8,189.3 500,189.3 500.1,189.3 500.3,189.3 500.4,189.3 
        500.5,189.3 500.7,189.3 500.8,189.3 501,189.3 501.1,189.3 501.2,189.3 501.4,189.3 501.5,189.3 501.7,189.3 501.8,189.3 
        501.9,189.3 502.1,189.3 502.2,189.3 502.4,189.3 502.5,189.3 502.7,189.3 502.8,189.3 502.9,189.3 503.1,189.3 503.2,189.3 
        503.4,189.3 503.5,189.3 503.6,189.3 503.8,189.3 503.9,189.3 504.1,189.3 504.2,189.3 504.3,189.3 504.5,189.3 504.6,189.3 
        504.8,189.3 504.9,189.3 505,189.3 505.2,189.3 505.3,189.3 505.5,189.3 505.6,189.3 505.8,189.3 505.9,189.3 506,189.3 
        506.2,189.3 506.3,189.3 506.5,189.3 506.6,189.3 506.7,189.3 506.9,189.3 507,189.3 507.2,189.3 507.3,189.3 507.4,189.3 
        507.6,189.3 507.7,189.3 507.9,189.3 508,189.3 508.2,189.3 508.3,189.3 508.4,189.3 508.6,189.3 508.7,189.3 508.9,189.3 
        509,189.3 509.1,189.3 509.3,189.3 509.4,189.3 509.6,189.3 509.7,189.3 509.8,189.3 510,189.3 510.1,189.3 510.3,189.3 
        510.4,189.3 510.6,189.3 510.7,189.3 510.8,189.3 511,189.3 511.1,189.3 511.3,189.3 511.4,189.3 511.5,189.3 511.7,189.3 
        511.8,189.3 512,189.3 512.1,189.3 512.2,189.3 512.4,189.3 512.5,189.3 512.7,189.3 512.8,189.3 513,189.3 513.1,189.3 
        513.2,189.3 513.4,189.3 513.5,189.3 513.7,189.3 513.8,189.3 513.9,189.3 514.1,189.3 514.2,189.3 514.4,189.3 514.5,189.3 
        514.6,189.3 514.8,189.3 514.9,189.3 515.1,189.3 515.2,189.3 515.4,189.3 515.5,189.3 515.6,189.3 515.8,189.3 515.9,189.3 
        516.1,189.3 516.2,189.3 516.3,189.3 516.5,189.3 516.6,189.3 516.8,189.3 516.9,189.3 517,189.3 517.2,189.3 517.3,189.3 
        517.5,189.3 517.6,189.3 517.8,189.3 517.9,189.3 518,189.3 518.2,189.3 518.3,189.3 518.5,189.3 518.6,189.3 518.7,189.3 
        518.9,189.3 519,189.3 519.2,189.3 519.3,189.3 519.4,189.3 519.6,189.3 519.7,189.3 519.9,189.3 520,189.3 520.2,189.3 
        520.3,189.3 520.4,189.3 520.6,189.3 520.7,189.3 520.9,189.3 521,189.3 521.1,189.3 521.3,189.3 521.4,189.3 521.6,189.3 
        521.7,189.3 521.8,189.3 522,189.3 522.1,189.3 522.3,189.3 522.4,189.3 522.6,189.3 522.7,189.3 522.8,189.3 523,189.3 
        523.1,189.3 523.3,189.3 523.4,189.3 523.5,189.3 523.7,189.3 523.8,189.3 524,189.3 524.1,189.3 524.2,189.3 524.4,189.3 
        524.5,189.3 524.7,189.3 524.8,189.3 525,189.3 525.1,189.3 525.2,189.3 525.4,189.3 525.5,189.3 525.7,189.3 525.8,189.3 
        525.9,189.3 526.1,189.3 526.2,189.3 526.4,189.3 526.5,189.3 526.6,189.3 526.8,189.3 526.9,189.3 527.1,189.3 527.2,189.3 
        527.4,189.3 527.5,189.3 527.6,189.3 527.8,189.3 527.9,189.3 528.1,189.3 528.2,189.3 528.3,189.3 528.5,189.3 528.6,189.3 
        528.8,189.3 528.9,189.3 529,189.3 529.2,189.3 529.3,189.3 529.5,189.3 529.6,189.3 529.8,189.3 529.9,189.3 530,189.3 
        530.2,189.3 530.3,189.3 530.5,189.3 530.6,189.3 530.7,189.3 530.9,189.3 531,189.3 531.2,189.3 531.3,189.3 531.4,189.3 
        531.6,189.3 531.7,189.3 531.9,189.3 532,189.3 532.2,189.3 532.3,189.3 532.4,189.3 532.6,189.3 532.7,189.3 532.9,189.3 
        533,189.3 533.1,189.3 533.3,189.3 533.4,189.3 533.6,189.3 533.7,189.3 533.8,189.3 534,189.3 534.1,189.3 534.3,189.3 
        534.4,189.3 534.6,189.3 534.7,189.3 534.8,189.3 535,189.3 535.1,189.3 535.3,189.3 535.4,189.3 535.5,189.3 535.7,189.3 
        535.8,189.3 536,189.3 536.1,189.3 536.2,189.3 536.4,189.3 536.5,189.3 536.7,189.3 536.8,189.3 537,189.3 537.1,189.3 
        537.2,189.3 537.4,189.3 537.5,189.3 537.7,189.3 537.8,189.3 537.9,189.3 538.1,189.3 538.2,189.3 538.4,189.2 538.5,189.2 
        538.6,189.2 538.8,189.2 538.9,189.2 539.1,189.2 539.2,189.2 539.4,189.2 539.5,189.2 539.6,189.2 539.8,189.2 539.9,189.2 
        540.1,189.2 540.2,189.2 540.3,189.2 540.5,189.2 540.6,189.2 540.8,189.2 540.9,189.2 541,189.2 541.2,189.2 541.3,189.2 
        541.5,189.2 541.6,189.2 541.8,189.2 541.9,189.2 542,189.2 542.2,189.2 542.3,189.2 542.5,189.2 542.6,189.2 542.7,189.2 
        542.9,189.2 543,189.2 543.2,189.2 543.3,189.2 543.4,189.2 543.6,189.2 543.7,189.2 543.9,189.2 544,189.2 544.2,189.2 
        544.3,189.2 544.4,189.2 544.6,189.2 544.7,189.2 544.9,189.2 545,189.2 545.1,189.2 545.3,189.2 545.4,189.2 545.6,189.2 
        545.7,189.2 545.8,189.2 546,189.2 546.1,189.2 546.3,189.2 546.4,189.2 546.6,189.2 546.7,189.2 546.8,189.2 547,189.2 
        547.1,189.2 547.3,189.2 547.4,189.2 547.5,189.2 547.7,189.2 547.8,189.2 548,189.2 548.1,189.2 548.2,189.2 548.4,189.2 
        548.5,189.2 548.7,189.2 548.8,189.2 549,189.2 549.1,189.2 549.2,189.2 549.4,189.2 549.5,189.2 549.7,189.2 549.8,189.2 
        549.9,189.2 550.1,189.2 550.2,189.2 550.4,189.2 550.5,189.2 550.6,189.2 550.8,189.2 550.9,189.2 551.1,189.2 551.2,189.2 
        551.4,189.2 551.5,189.2 551.6,189.2 551.8,189.2 551.9,189.2 552.1,189.2 552.2,189.2 552.3,189.2 552.5,189.2 552.6,189.2 
        552.8,189.2 552.9,189.2 553,189.2 553.2,189.2 553.3,189.2 553.5,189.2 553.6,189.2 553.8,189.2 553.9,189.2 554,189.2 
        554.2,189.2 554.3,189.2 554.5,189.2 554.6,189.2 554.7,189.2 554.9,189.2 555,189.2 555.2,189.2 555.3,189.2 555.4,189.2 
        555.6,189.2 555.7,189.2 555.9,189.2 556,189.2 556.2,189.2 556.3,189.2 556.4,189.2 556.6,189.2 556.7,189.2 556.9,189.2 
        557,189.2 557.1,189.2 557.3,189.2 557.4,189.2 557.6,189.2 557.7,189.2 557.8,189.2 558,189.2 558.1,189.2 558.3,189.2 
        558.4,189.2 558.5,189.2 558.7,189.2 558.8,189.2 559,189.2 559.1,189.2 559.3,189.2 559.4,189.2 559.5,189.2 559.7,189.2 
        559.8,189.2 560,189.2 560.1,189.2 560.2,189.2 560.4,189.2 560.5,189.2 560.7,189.2 560.8,189.2 560.9,189.2 561.1,189.2 
        561.2,189.2 561.4,189.2 561.5,189.2 561.7,189.2 561.8,189.2 561.9,189.2 562.1,189.2 562.2,189.2 562.4,189.2 562.5,189.2 
        562.6,189.2 562.8,189.2 562.9,189.2 563.1,189.2 563.2,189.2 563.3,189.2 563.5,189.2 563.6,189.2 563.8,189.2 563.9,189.2 
        564.1,189.2 564.2,189.2 564.3,189.2 564.5,189.2 564.6,189.2 564.8,189.2 564.9,189.2 565,189.2 565.2,189.2 565.3,189.2 
        565.5,189.2 565.6,189.2 565.8,189.2 565.9,189.2 566,189.2 566.2,189.2 566.3,189.2 566.5,189.2 566.6,189.2 566.7,189.2 
        566.9,189.2 567,189.2 567.2,189.2 567.3,189.2 567.4,189.2 567.6,189.2 567.7,189.2 567.9,189.2 568,189.2 568.2,189.2 
        568.3,189.2 568.4,189.2 568.6,189.2 568.7,189.2 568.9,189.2 569,189.2 569.1,189.2 569.3,189.2 569.4,189.2 569.6,189.2 
        569.7,189.2 569.8,189.2 570,189.2 570.1,189.2 570.3,189.2 570.4,189.2 570.5,189.2 570.7,189.2 570.8,189.2 571,189.2 
        571.1,189.2 571.3,189.2 571.4,189.2 571.5,189.2 571.7,189.2 571.8,189.2 572,189.2 572.1,189.2 572.2,189.2 572.4,189.2 
        572.5,189.2 572.7,189.2 572.8,189.2 572.9,189.2 573.1,189.2 573.2,189.2 573.4,189.2 573.5,189.2 573.7,189.2 573.8,189.2 
        573.9,189.2 574.1,189.2 574.2,189.2 574.4,189.2 574.5,189.2 574.6,189.2 574.8,189.2 574.9,189.2 575.1,189.2 575.2,189.2 
        575.3,189.2 575.5,189.2 575.6,189.2 575.8,189.2 575.9,189.2 576.1,189.2 576.2,189.2 576.3,189.2 576.5,189.2 576.6,189.2 
        576.8,189.2 576.9,189.2 577,189.2 577.2,189.2 577.3,189.2 577.5,189.2 577.6,189.2 577.7,189.2 577.9,189.2 578,189.2 
        578.2,189.2 578.3,189.2 578.5,189.2 578.6,189.2 578.7,189.2 578.9,189.2 579,189.2 579.2,189.2 579.3,189.2 579.4,189.2 
        579.6,189.2 579.7,189.2 579.9,189.2 580,189.2 580.1,189.2 580.3,189.2 580.4,189.2 580.6,189.2 580.7,189.2 580.9,189.2 
        581,189.2 581.1,189.2 581.3,189.2 581.4,189.2 581.6,189.2 581.7,189.2 581.8,189.2 582,189.2 582.1,189.2 582.3,189.2 
        582.4,189.2 582.5,189.2 582.7,189.2 582.8,189.2 583,189.2 583.1,189.2 583.3,189.2 583.4,189.2 583.5,189.2 583.7,189.2 
        583.8,189.2 584,189.2 584.1,189.2 584.2,189.2 584.4,189.2 584.5,189.2 584.7,189.2 584.8,189.2 584.9,189.2 585.1,189.2 
        585.2,189.2 585.4,189.2 585.5,189.2 585.7,189.2 585.8,189.2 585.9,189.2 586.1,189.2 586.2,189.2 586.4,189.2 586.5,189.2 
        586.6,189.2 586.8,189.2 586.9,189.2 587.1,189.2 587.2,189.2 587.3,189.2 587.5,189.2 587.6,189.2 587.8,189.2 587.9,189.2 
        588.1,189.2 588.2,189.2 588.3,189.2 588.5,189.2 588.6,189.2 588.8,189.2 588.9,189.2 589,189.2 589.2,189.2 589.3,189.2 
        589.5,189.2 589.6,189.2 589.7,189.2 589.9,189.2 590,189.2 590.2,189.2 590.3,189.2 590.5,189.2 590.6,189.2 590.7,189.2 
        590.9,189.2 591,189.2 591.2,189.2 591.3,189.2 591.4,189.2 591.6,189.2 591.7,189.2 591.9,189.2 592,189.2 592.1,189.2 
        592.3,189.2 592.4,189.2 592.6,189.2 592.7,189.2 592.9,189.2 593,189.2 593.1,189.2 593.3,189.2 593.4,189.2 593.6,189.2 
        593.7,189.2 593.8,189.2 594,189.2 594.1,189.2 594.3,189.2 594.4,189.2 594.5,189.2 594.7,189.2 594.8,189.2 595,189.2 
        595.1,189.2 595.3,189.2 595.4,189.2 595.5,189.2 595.7,189.2 595.8,189.2 596,189.2 596.1,189.2 596.2,189.2 596.4,189.2 
        596.5,189.2 596.7,189.2 596.8,189.2 596.9,189.2 597.1,189.2 597.2,189.2 597.4,189.2 597.5,189.2 597.7,189.2 597.8,189.2 
        597.9,189.2 598.1,189.2 598.2,189.2 598.4,189.2 598.5,189.2 598.6,189.2 598.8,189.2 598.9,189.2 599.1,189.2 599.2,189.2 
        599.3,189.2 599.5,189.2 599.6,189.2 599.8,189.2 599.9,189.2 600.1,189.2 600.2,189.2 600.3,189.2 600.5,189.2 600.6,189.2 
        600.8,189.2 600.9,189.2 601,189.2 601.2,189.2 601.3,189.2 601.5,189.2 601.6,189.2 601.7,189.2 601.9,189.2 602,189.2 
        602.2,189.2 602.3,189.2 602.5,189.2 602.6,189.2 602.7,189.2 602.9,189.2 603,189.2 603.2,189.2 603.3,189.2 603.4,189.2 
        603.6,189.2 603.7,189.2 603.9,189.2 604,189.2 604.1,189.2 604.3,189.2 604.4,189.2 604.6,189.2 604.7,189.2 604.9,189.2 
        605,189.2 605.1,189.2 605.3,189.2 605.4,189.2 605.6,189.2 605.7,189.2 605.8,189.2 606,189.2 606.1,189.2 606.3,189.2 
        606.4,189.2 606.5,189.2 606.7,189.2 606.8,189.2 607,189.2 607.1,189.2 607.2,189.2 607.4,189.2 607.5,189.2 607.7,189.2 
        607.8,189.2 608,189.2 608.1,189.2 608.2,189.2 608.4,189.2 608.5,189.2 608.7,189.2 608.8,189.2 608.9,189.2 609.1,189.2 
        609.2,189.2 609.4,189.2 609.5,189.2 609.7,189.2 609.8,189.2 609.9,189.2 610.1,189.2 610.2,189.2 610.4,189.2 610.5,189.2 
        610.6,189.2 610.8,189.2 610.9,189.2 611.1,189.2 611.2,189.2 611.3,189.2 611.5,189.2 611.6,189.2 611.8,189.2 611.9,189.2 
        612.1,189.2 612.2,189.2 612.3,189.2 612.5,189.2 612.6,189.2 612.8,189.2 612.9,189.2 613,189.2 613.2,189.2 613.3,189.2 
        613.5,189.2 613.6,189.2 613.7,189.2 613.9,189.2 614,189.2 614.2,189.2 614.3,189.2 614.5,189.2 614.6,189.2 614.7,189.2 
        614.9,189.2 615,189.2 615.2,189.2 615.3,189.2 615.4,189.2 615.6,189.2 615.7,189.2 615.9,189.2 616,189.2 616.1,189.2 
        616.3,189.2 616.4,189.2 616.6,189.2 616.7,189.2 616.9,189.2 617,189.2 617.1,189.2 617.3,189.2 617.4,189.2 617.6,189.2 
        617.7,189.2 617.8,189.2 618,189.2 618.1,189.2 618.3,189.2 618.4,189.2 618.5,189.2 618.7,189.2 618.8,189.2 619,189.2 
        619.1,189.2 619.2,189.2 619.4,189.2 619.5,189.2 619.7,189.2 619.8,189.2 620,189.2 620.1,189.2 620.2,189.2 620.4,189.2 
        620.5,189.2 620.7,189.2 620.8,189.2 620.9,189.2 621.1,189.2 621.2,189.2 621.4,189.2 621.5,189.2 621.6,189.2 621.8,189.2 
        621.9,189.2 622.1,189.2 622.2,189.2 622.4,189.2 622.5,189.2 622.6,189.2 622.8,189.2 622.9,189.2 623.1,189.2 623.2,189.2 
        623.3,189.2 623.5,189.2 623.6,189.2 623.8,189.2 623.9,189.2 624,189.2 624.2,189.2 624.3,189.2 624.5,189.2 624.6,189.2 
        624.8,189.2 624.9,189.2 625,189.2 625.2,189.2 625.3,189.2 625.5,189.2 625.6,189.2 625.7,189.2 625.9,189.2 626,189.2 
        626.2,189.2 626.3,189.2 626.4,189.2 626.6,189.2 626.7,189.2 626.9,189.2 627,189.2 627.2,189.2 627.3,189.2 627.4,189.2 
        627.6,189.2 627.7,189.2 627.9,189.2 628,189.2 628.1,189.2 628.3,189.2 628.4,189.2 628.6,189.2 628.7,189.2 628.8,189.2 
        629,189.2 629.1,189.2 629.3,189.2 629.4,189.2 629.6,189.2 629.7,189.2 629.8,189.2 630,189.2 630.1,189.2 630.3,189.2 
        630.4,189.2 630.5,189.2 630.7,189.2 630.8,189.2 631,189.2 631.1,189.2 631.2,189.2 631.4,189.2 631.5,189.2 631.7,189.1 
        631.8,189.1 632,189.1 632.1,189.1 632.2,189.1 632.4,189.1 632.5,189.1 632.7,189.1 632.8,189.1 632.9,189.1 633.1,189.1 
        633.2,189.1 633.4,189.1 633.5,189.1 633.6,189.1 633.8,189.1 633.9,189.1 634.1,189.1 634.2,189.1 634.4,189.1 634.5,189.1 
        634.6,189.1 634.8,189.1 634.9,189.1 635.1,189.1 635.2,189.1 635.3,189.1 635.5,189.1 635.6,189.1 635.8,189.1 635.9,189.1 
        636,189.1 636.2,189.1 636.3,189.1 636.5,189.1 636.6,189.1 636.8,189.1 636.9,189.1 637,189.1 637.2,189.1 637.3,189.1 
        637.5,189.1 637.6,189.1 637.7,189.1 637.9,189.1 638,189.1 638.2,189.1 638.3,189.1 638.4,189.1 638.6,189.1 638.7,189.1 
        638.9,189.1 639,189.1 639.2,189.1 639.3,189.1 639.4,189.1 639.6,189.1 639.7,189.1 639.9,189.1 640,189.1 640.1,189.1 
        640.3,189.1 640.4,189.1 640.6,189.1 640.7,189.1 640.8,189.1 641,189.1 641.1,189.1 641.3,189.1 641.4,189.1 641.6,189.1 
        641.7,189.1 641.8,189.1 642,189.1 642.1,189.1 642.3,189.1 642.4,189.1 642.5,189.1 642.7,189.1 642.8,189.1 643,189.1 
        643.1,189.1 643.2,189.1 643.4,189.1 643.5,189.1 643.7,189.1 643.8,189.1 644,189.1 644.1,189.1 644.2,189.1 644.4,189.1 
        644.5,189.1 644.7,189.1 644.8,189.1 644.9,189.1 645.1,189.1 645.2,189.1 645.4,189.1 645.5,189.1 645.6,189.1 645.8,189.1 
        645.9,189.1 646.1,189.1 646.2,189.1 646.4,189.1 646.5,189.1 646.6,189.1 646.8,189.1 646.9,189.1 647.1,189.1 647.2,189.1 
        647.3,189.1 647.5,189.1 647.6,189.1 647.8,189.1 647.9,189.1 648,189.1 648.2,189.1 648.3,189.1 648.5,189.1 648.6,189.1 
        648.8,189.1 648.9,189.1 649,189.1 649.2,189.1 649.3,189.1 649.5,189.1 649.6,189.1 649.7,189.1 649.9,189.1 650,189.1 
        650.2,189.1 650.3,189.1 650.4,189.1 650.6,189.1 650.7,189.1 650.9,189.1 651,189.1 651.2,189.1 651.3,189.1 651.4,189.1 
        651.6,189.1 651.7,189.1 651.9,189.1 652,189.1 652.1,189.1 652.3,189.1 652.4,189.1 652.6,189.1 652.7,189.1 652.8,189.1 
        653,189.1 653.1,189.1 653.3,189.1 653.4,189.1 653.6,189.1 653.7,189.1 653.8,189.1 654,189.1 654.1,189.1 654.3,189.1 
        654.4,189.1 654.5,189.1 654.7,189.1 654.8,189.1 655,189.1 655.1,189.1 655.2,189.1 655.4,189.1 655.5,189.1 655.7,189.1 
        655.8,189.1 656,189.1 656.1,189.1 656.2,189.1 656.4,189.1 656.5,189.1 656.7,189.1 656.8,189.1 656.9,189.1 657.1,189.1 
        657.2,189.1 657.4,189.1 657.5,189.1 657.6,189.1 657.8,189.1 657.9,189.1 658.1,189.1 658.2,189.1 658.4,189.1 658.5,189.1 
        658.6,189.1 658.8,189.1 658.9,189.1 659.1,189.1 659.2,189.1 659.3,189.1 659.5,189.1 659.6,189.1 659.8,189.1 659.9,189.1 
        660,189.1 660.2,189.1 660.3,189.1 660.5,189.1 660.6,189.1 660.8,189.1 660.9,189.1 661,189.1 661.2,189.1 661.3,189.1 
        661.5,189.1 661.6,189.1 661.7,189.1 661.9,189.1 662,189.1 662.2,189.1 662.3,189.1 662.4,189.1 662.6,189.1 662.7,189.1 
        662.9,189.1 663,189.1 663.2,189.1 663.3,189.1 663.4,189.1 663.6,189.1 663.7,189.1 663.9,189.1 664,189.1 664.1,189.1 
        664.3,189.1 664.4,189.1 664.6,189.1 664.7,189.1 664.8,189.1 665,189.1 665.1,189.1 665.3,189.1 665.4,189.1 665.6,189.1 
        665.7,189.1 665.8,189.1 666,189.1 666.1,189.1 666.3,189.1 666.4,189.1 666.5,189.1 666.7,189.1 666.8,189.1 667,189.1 
        667.1,189.1 667.2,189.1 667.4,189.1 667.5,189.1 667.7,189.1 667.8,189.1 668,189.1 668.1,189.1 668.2,189.1 668.4,189.1 
        668.5,189.1 668.7,189.1 668.8,189.1 668.9,189.1 669.1,189.1 669.2,189.1 669.4,189.1 669.5,189.1 669.6,189.1 669.8,189.1 
        669.9,189.1 670.1,189.1 670.2,189.1 670.3,189.1 670.5,189.1 670.6,189.1 670.8,189.1 670.9,189.1 671.1,189.1 671.2,189.1 
        671.3,189.1 671.5,189.1 671.6,189.1 671.8,189.1 671.9,189.1 672,189.1 672.2,189.1 672.3,189.1 672.5,189.1 672.6,189.1 
        672.7,189.1 672.9,189.1 673,189.1 673.2,189.1 673.3,189.1 673.5,189.1 673.6,189.1 673.7,189.1 673.9,189.1 674,189.1 
        674.2,189.1 674.3,189.1 674.4,189.1 674.6,189.1 674.7,189.1 674.9,189.1 675,189.1 675.2,189.1 675.3,189.1 675.4,189.1 
        675.6,189.1 675.7,189.1 675.9,189.1 676,189.1 676.1,189.1 676.3,189.1 676.4,189.1 676.6,189.1 676.7,189.1 676.8,189.1 
        677,189.1 677.1,189.1 677.3,189.1 677.4,189.1 677.6,189.1 677.7,189.1 677.8,189.1 678,189.1 678.1,189.1 678.3,189.1 
        678.4,189.1 678.5,189.1 678.7,189.1 678.8,189.1 679,189.1 679.1,189.1 679.2,189.1 679.4,189.1 679.5,189.1 679.7,189.1 
        679.8,189.1 680,189.1 680.1,189.1 680.2,189.1 680.4,189.1 680.5,189.1 680.7,189.1 680.8,189.1 680.9,189.1 681.1,189.1 
        681.2,189.1 681.4,189.1 681.5,189.1 681.6,189.1 681.8,189.1 681.9,189.1 682.1,189.1 682.2,189.1 682.3,189.1 682.5,189.1 
        682.6,189.1 682.8,189.1 682.9,189.1 683.1,189.1 683.2,189.1 683.3,189.1 683.5,189.1 683.6,189.1 683.8,189.1 683.9,189.1 
        684,189.1 684.2,189.1 684.3,189.1 684.5,189.1 684.6,189.1 684.7,189.1 684.9,189.1 685,189.1 685.2,189.1 685.3,189.1 
        685.5,189.1 685.6,189.1 685.7,189.1 685.9,189.1 686,189.1 686.2,189.1 686.3,189.1 686.4,189.1 686.6,189.1 686.7,189.1 
        686.9,189.1 687,189.1 687.1,189.1 687.3,189.1 687.4,189.1 687.6,189.1 687.7,189.1 687.9,189.1 688,189.1 688.1,189.1 
        688.3,189.1 688.4,189.1 688.6,189.1 688.7,189.1 688.8,189.1 689,189.1 689.1,189.1 689.3,189.1 689.4,189.1 689.5,189.1 
        689.7,189.1 689.8,189.1 690,189.1 690.1,189.1 690.3,189.1 690.4,189.1 690.5,189.1 690.7,189.1 690.8,189.1 691,189.1 
        691.1,189.1 691.2,189.1 691.4,189.1 691.5,189.1 691.7,189.1 691.8,189.1 691.9,189.1 692.1,189.1 692.2,189.1 692.4,189.1 
        692.5,189.1 692.7,189.1 692.8,189.1 692.9,189.1 693.1,189.1 693.2,189.1 693.4,189.1 693.5,189.1 693.6,189.1 693.8,189.1 
        693.9,189.1 694.1,189.1 694.2,189.1 694.3,189.1 694.5,189.1 694.6,189.1 694.8,189.1 694.9,189.1 695.1,189.1 695.2,189.1 
        695.3,189.1 695.5,189.1 695.6,189.1 695.8,189.1 695.9,189.1 696,189.1 696.2,189.1 696.3,189.1 696.5,189.1 696.6,189.1 
        696.7,189.1 696.9,189.1 697,189.1 697.2,189.1 697.3,189.1 697.5,189.1 697.6,189.1 697.7,189.1 697.9,189.1 698,189.1 
        698.2,189.1 698.3,189.1 698.4,189.1 698.6,189.1 698.7,189.1 698.9,189.1 699,189.1 699.1,189.1 699.3,189.1 699.4,189.1 
        699.6,189.1 699.7,189.1 699.9,189.1 700,189.1 700.1,189.1 700.3,189.1 700.4,189.1 700.6,189.1 700.7,189.1 700.8,189.1 
        701,189.1 701.1,189.1 701.3,189.1 701.4,189.1 701.5,189.1 701.7,189.1 701.8,189.1 702,189.1 702.1,189.1 702.3,189.1 
        702.4,189.1 702.5,189.1 702.7,189.1 702.8,189.1 703,189.1 703.1,189.1 703.2,189.1 703.4,189.1 703.5,189.1 703.7,189.1 
        703.8,189.1 703.9,189.1 704.1,189.1 704.2,189.1 704.4,189.1 704.5,189.1 704.7,189.1 704.8,189.1 704.9,189.1 705.1,189.1 
        705.2,189.1 705.4,189.1 705.5,189.1 705.6,189.1 705.8,189.1 705.9,189.1 706.1,189.1 706.2,189.1 706.3,189.1 706.5,189.1 
        706.6,189.1 706.8,189.1 706.9,189.1 707.1,189.1 707.2,189.1 707.3,189.1 707.5,189.1 707.6,189.1 707.8,189.1 707.9,189.1 
        708,189.1 708.2,189.1 708.3,189.1 708.5,189.1 708.6,189.1 708.7,189.1 708.9,189.1 709,189.1 709.2,189.1 709.3,189.1 
        709.5,189.1 709.6,189.1 709.7,189.1 709.9,189.1 710,189.1 710.2,189.1 710.3,189.1 710.4,189.1 710.6,189.1 710.7,189.1 
        710.9,189.1 711,189.1 711.1,189.1 711.3,189.1 711.4,189.1 711.6,189.1 711.7,189.1 711.9,189.1 712,189.1 712.1,189.1 
        712.3,189.1 712.4,189.1 712.6,189.1 712.7,189.1 712.8,189.1 713,189.1 713.1,189.1 713.3,189.1 713.4,189.1 713.5,189.1 
        713.7,189.1 713.8,189.1 714,189.1 714.1,189.1 714.3,189.1 714.4,189.1 714.5,189.1 714.7,189.1 714.8,189.1 715,189.1 
        715.1,189.1 715.2,189.1 715.4,189.1 715.5,189.1 715.7,189.1 715.8,189.1 715.9,189.1 716.1,189.1 716.2,189.1 716.4,189.1 
        716.5,189.1 716.7,189.1 716.8,189.1 716.9,189.1 717.1,189.1 717.2,189.1 717.4,189.1 717.5,189.1 717.6,189.1 717.8,189.1 
        717.9,189.1 718.1,189.1 718.2,189.1 718.3,189.1 718.5,189.1 718.6,189.1"/>
    <polyline class="singularity" fill="none" stroke="#000000" stroke-width="4" stroke-linecap="round" stroke-miterlimit="10" points="
        4.2,187.2 4.5,187.2 4.8,187.2 5.1,187.2 5.3,187.2 5.6,187.2 5.9,187.2 6.2,187.2 6.5,187.2 6.7,187.2 7,187.2 7.3,187.2 
        7.6,187.2 7.9,187.2 8.2,187.2 8.4,187.2 8.7,187.2 9,187.2 9.3,187.2 9.6,187.2 9.9,187.2 10.1,187.2 10.4,187.2 10.7,187.1 
        11,187.1 11.3,187.1 11.5,187.1 11.8,187.1 12.1,187.1 12.4,187.1 12.7,187.1 13,187.1 13.2,187.1 13.5,187.1 13.8,187.1 
        14.1,187.1 14.4,187.1 14.7,187.1 14.9,187.1 15.2,187.1 15.5,187.1 15.8,187.1 16.1,187.1 16.3,187.1 16.6,187.1 16.9,187.1 
        17.2,187.1 17.5,187.1 17.8,187.1 18,187.1 18.3,187.1 18.6,187.1 18.9,187 19.2,187 19.5,187 19.7,187 20,187 20.3,187 20.6,187 
        20.9,187 21.1,187 21.4,187 21.7,187 22,187 22.3,187 22.6,187 22.8,187 23.1,187 23.4,187 23.7,187 24,187 24.3,187 24.5,187 
        24.8,187 25.1,187 25.4,187 25.7,186.9 25.9,186.9 26.2,186.9 26.5,186.9 26.8,186.9 27.1,186.9 27.4,186.9 27.6,186.9 27.9,186.9 
        28.2,186.9 28.5,186.9 28.8,186.9 29.1,186.9 29.3,186.9 29.6,186.9 29.9,186.9 30.2,186.9 30.5,186.9 30.7,186.9 31,186.9 
        31.3,186.9 31.6,186.9 31.9,186.9 32.2,186.8 32.4,186.8 32.7,186.8 33,186.8 33.3,186.8 33.6,186.8 33.9,186.8 34.1,186.8 
        34.4,186.8 34.7,186.8 35,186.8 35.3,186.8 35.5,186.8 35.8,186.8 36.1,186.8 36.4,186.8 36.7,186.8 37,186.8 37.2,186.8 
        37.5,186.8 37.8,186.7 38.1,186.7 38.4,186.7 38.7,186.7 38.9,186.7 39.2,186.7 39.5,186.7 39.8,186.7 40.1,186.7 40.3,186.7 
        40.6,186.7 40.9,186.7 41.2,186.7 41.5,186.7 41.8,186.7 42,186.7 42.3,186.7 42.6,186.7 42.9,186.6 43.2,186.6 43.4,186.6 
        43.7,186.6 44,186.6 44.3,186.6 44.6,186.6 44.9,186.6 45.1,186.6 45.4,186.6 45.7,186.6 46,186.6 46.3,186.6 46.6,186.6 
        46.8,186.6 47.1,186.6 47.4,186.6 47.7,186.5 48,186.5 48.2,186.5 48.5,186.5 48.8,186.5 49.1,186.5 49.4,186.5 49.7,186.5 
        49.9,186.5 50.2,186.5 50.5,186.5 50.8,186.5 51.1,186.5 51.4,186.5 51.6,186.5 51.9,186.4 52.2,186.4 52.5,186.4 52.8,186.4 
        53,186.4 53.3,186.4 53.6,186.4 53.9,186.4 54.2,186.4 54.5,186.4 54.7,186.4 55,186.4 55.3,186.4 55.6,186.3 55.9,186.3 
        56.2,186.3 56.4,186.3 56.7,186.3 57,186.3 57.3,186.3 57.6,186.3 57.8,186.3 58.1,186.3 58.4,186.3 58.7,186.3 59,186.3 
        59.3,186.2 59.5,186.2 59.8,186.2 60.1,186.2 60.4,186.2 60.7,186.2 61,186.2 61.2,186.2 61.5,186.2 61.8,186.2 62.1,186.2 
        62.4,186.2 62.6,186.1 62.9,186.1 63.2,186.1 63.5,186.1 63.8,186.1 64.1,186.1 64.3,186.1 64.6,186.1 64.9,186.1 65.2,186.1 
        65.5,186 65.8,186 66,186 66.3,186 66.6,186 66.9,186 67.2,186 67.4,186 67.7,186 68,186 68.3,185.9 68.6,185.9 68.9,185.9 
        69.1,185.9 69.4,185.9 69.7,185.9 70,185.9 70.3,185.9 70.6,185.9 70.8,185.9 71.1,185.8 71.4,185.8 71.7,185.8 72,185.8 
        72.2,185.8 72.5,185.8 72.8,185.8 73.1,185.8 73.4,185.7 73.7,185.7 73.9,185.7 74.2,185.7 74.5,185.7 74.8,185.7 75.1,185.7 
        75.4,185.7 75.6,185.7 75.9,185.6 76.2,185.6 76.5,185.6 76.8,185.6 77,185.6 77.3,185.6 77.6,185.6 77.9,185.5 78.2,185.5 
        78.5,185.5 78.7,185.5 79,185.5 79.3,185.5 79.6,185.5 79.9,185.4 80.2,185.4 80.4,185.4 80.7,185.4 81,185.4 81.3,185.4 
        81.6,185.4 81.8,185.3 82.1,185.3 82.4,185.3 82.7,185.3 83,185.3 83.3,185.3 83.5,185.2 83.8,185.2 84.1,185.2 84.4,185.2 
        84.7,185.2 85,185.2 85.2,185.1 85.5,185.1 85.8,185.1 86.1,185.1 86.4,185.1 86.6,185.1 86.9,185 87.2,185 87.5,185 87.8,185 
        88.1,185 88.3,184.9 88.6,184.9 88.9,184.9 89.2,184.9 89.5,184.9 89.8,184.8 90,184.8 90.3,184.8 90.6,184.8 90.9,184.8 
        91.2,184.7 91.4,184.7 91.7,184.7 92,184.7 92.3,184.7 92.6,184.6 92.9,184.6 93.1,184.6 93.4,184.6 93.7,184.5 94,184.5 
        94.3,184.5 94.6,184.5 94.8,184.4 95.1,184.4 95.4,184.4 95.7,184.4 96,184.3 96.2,184.3 96.5,184.3 96.8,184.3 97.1,184.2 
        97.4,184.2 97.7,184.2 97.9,184.2 98.2,184.1 98.5,184.1 98.8,184.1 99.1,184 99.4,184 99.6,184 99.9,183.9 100.2,183.9 
        100.5,183.9 100.8,183.9 101,183.8 101.3,183.8 101.6,183.8 101.9,183.7 102.2,183.7 102.5,183.7 102.7,183.6 103,183.6 
        103.3,183.5 103.6,183.5 103.9,183.5 104.1,183.4 104.4,183.4 104.7,183.4 105,183.3 105.3,183.3 105.6,183.2 105.8,183.2 
        106.1,183.2 106.4,183.1 106.7,183.1 107,183 107.3,183 107.5,182.9 107.8,182.9 108.1,182.8 108.4,182.8 108.7,182.8 108.9,182.7 
        109.2,182.7 109.5,182.6 109.8,182.6 110.1,182.5 110.4,182.4 110.6,182.4 110.9,182.3 111.2,182.3 111.5,182.2 111.8,182.2 
        112.1,182.1 112.3,182.1 112.6,182 112.9,181.9 113.2,181.9 113.5,181.8 113.7,181.7 114,181.7 114.3,181.6 114.6,181.5 
        114.9,181.5 115.2,181.4 115.4,181.3 115.7,181.2 116,181.2 116.3,181.1 116.6,181 116.9,180.9 117.1,180.8 117.4,180.8 
        117.7,180.7 118,180.6 118.3,180.5 118.5,180.4 118.8,180.3 119.1,180.2 119.4,180.1 119.7,180 120,179.9 120.2,179.8 120.5,179.7 
        120.8,179.6 121.1,179.5 121.4,179.4 121.7,179.2 121.9,179.1 122.2,179 122.5,178.9 122.8,178.7 123.1,178.6 123.3,178.4 
        123.6,178.3 123.9,178.1 124.2,178 124.5,177.8 124.8,177.7 125,177.5 125.3,177.3 125.6,177.2 125.9,177 126.2,176.8 126.5,176.6 
        126.7,176.4 127,176.2 127.3,176 127.6,175.7 127.9,175.5 128.1,175.3 128.4,175 128.7,174.8 129,174.5 129.3,174.2 129.6,173.9 
        129.8,173.6 130.1,173.3 130.4,173 130.7,172.6 131,172.3 131.3,171.9 131.5,171.5 131.8,171.1 132.1,170.7 132.4,170.2 
        132.7,169.7 132.9,169.2 133.2,168.7 133.5,168.2 133.8,167.6 134.1,167 134.4,166.3 134.6,165.6 134.9,164.8 135.2,164.1 
        135.5,163.2 135.8,162.3 136.1,161.3 136.3,160.3 136.5,159.7 136.6,159.1 136.8,158.5 136.9,157.9 137,157.2 137.2,156.5 
        137.3,155.8 137.5,155.1 137.6,154.3 137.7,153.5 137.9,152.6 138,151.7 138.2,150.8 138.3,149.8 138.5,148.7 138.6,147.6 
        138.7,146.4 138.9,145.2 139,143.9 139.2,142.5 139.3,141 139.4,139.4 139.6,137.7 139.7,135.9 139.9,133.9 140,131.8 140.1,129.5 
        140.3,127 140.4,124.4 140.6,121.4 140.7,118.2 140.9,114.7 141,110.8 141.1,106.5 141.3,101.7 141.4,96.2 141.6,90 141.7,83 
        141.8,74.9 142,65.4 142.1,54.2 142.3,40.7 142.4,24.3 142.5,3.7"/>
  </g>
  <g id="text">
    <path class="hatton" d="M256.3,209.1c0-0.7,0.6-1.2,1.2-1.2h2c0.8,0,1.2,0.6,1.2,1.2V238h42.2v-28.9
      c0-0.7,0.6-1.2,1.2-1.2h2c0.8,0,1.2,0.6,1.2,1.2v63.4c0,0.7-0.5,1.2-1.2,1.2h-2c-0.7,0-1.2-0.6-1.2-1.2V242h-42.2v30.5
      c0,0.7-0.5,1.2-1.2,1.2h-2c-0.7,0-1.2-0.6-1.2-1.2V209.1z M317.9,272.6l28.9-65.4c0.2-0.4,0.7-0.7,1.1-0.7h0.3
      c0.5,0,0.9,0.1,1.2,0.7l28.7,65.4c0.2,0.6,0.2,1.1-0.8,1.1h-2.4c-0.7,0-1.1-0.5-1.3-0.8l-7.6-17.3H330l-7.5,17.3
      c-0.2,0.4-0.7,0.8-1.3,0.8h-2.6C317.9,273.7,317.6,273.3,317.9,272.6z M364.3,251.9L348.2,214h-0.2l-16.4,37.9H364.3z M395,212h-18
      c-0.9,0-1.2-0.6-1.2-1.4v-1.4c0-0.8,0.6-1.2,1.2-1.2h40.4c0.8,0,1.2,0.6,1.2,1.2v1.6c0,0.7-0.5,1.2-1.2,1.2h-18v60.5
      c0,0.7-0.6,1.2-1.5,1.2h-1.7c-0.7,0-1.2-0.6-1.2-1.2V212z M441.7,212h-18c-0.9,0-1.2-0.6-1.2-1.4v-1.4c0-0.8,0.6-1.2,1.2-1.2h40.4
      c0.8,0,1.2,0.6,1.2,1.2v1.6c0,0.7-0.5,1.2-1.2,1.2h-18v60.5c0,0.7-0.6,1.2-1.5,1.2h-1.7c-0.7,0-1.2-0.6-1.2-1.2V212z M504,207
      c18.9,0,33.9,15.1,33.9,33.9c0,18.9-15,33.7-33.9,33.7c-18.8,0-33.8-14.9-33.8-33.7C470.2,222.1,485.2,207,504,207z M504,270.5
      c16.4,0,29.8-13.2,29.8-29.6s-13.3-29.8-29.8-29.8s-29.7,13.3-29.7,29.8S487.5,270.5,504,270.5z M553.2,208.2
      c0-0.8,0.7-1.2,1.4-1.2h1.6l45.1,58.7c0.1,0,0.1,0,0.1,0v-56.6c0-0.7,0.6-1.2,1.2-1.2h1.9c0.7,0,1.2,0.6,1.2,1.2v64.3
      c0,0.8-0.8,1.2-1.5,1.2H603c-0.1,0-0.8-0.3-45.5-59.3h-0.1v57.1c0,0.7-0.6,1.2-1.2,1.2h-1.8c-0.7,0-1.2-0.6-1.2-1.2V208.2z"/>
    <path class="eu" d="M618.7,269.5c1.3,0.1,2.5,0.4,3.6,1.1c1.1,0.6,1.9,1.3,2.3,2.3c0.4,1,0.2,1.7-0.6,2.2
      c-0.4,0.2-0.9,0.4-1.6,0.5c-0.7,0.1-1.4,0.1-2.2,0.1c-0.8,0-1.6-0.1-2.3-0.3c-0.8-0.2-1.4-0.4-1.9-0.6c-1-0.5-1.5-1.3-1.5-2.5
      c0-1.2,0.3-1.9,1.1-2.3C616.4,269.6,617.4,269.4,618.7,269.5z M655,244.9c-2,2.4-4.3,4.8-6.8,7.1c-2.4,2.2-4.8,4.1-7.2,5.9
      c-2.4,1.8-4.4,3.1-6,4c-0.1,2.1,0.2,3.8,0.9,5.1s1.7,2,3.1,2.1c1.3,0.1,2.7-0.2,4.3-0.9c1.6-0.7,3.2-1.6,4.9-2.8
      c1.7-1.2,3.4-2.6,5.2-4.1s3.4-3.2,5-5c2.7-3,5.1-5.9,7.3-8.7s3.6-5.1,4.5-6.8c0.4-0.7,0.8-1,1.3-1c0.5,0.1,0.9,0.4,1.2,1
      c0.6,1,0.7,2,0.4,3c-0.8,2.1-2.2,4.7-4.3,8s-4.6,6.4-7.4,9.5c-2.9,3.2-6,6-9.4,8.3c-3.4,2.4-6.6,3.7-9.8,3.9
      c-3.9,0.2-7.1-1.2-9.5-4.2c-1.8-2.2-2.7-5.2-2.9-8.8c-0.2-3.6,0.7-7.7,2.8-12.2c2.6-5.5,5.3-9.6,8.2-12.3c2.9-2.7,5.8-4.4,8.6-5.1
      c1.7-0.4,3.2-0.5,4.5-0.2c1.3,0.3,2.4,0.9,3.3,1.7c1.5,1.5,2,3.4,1.6,5.8C658.2,240.3,657,242.5,655,244.9z M636.9,253.8
      c-0.3,0.7-0.5,1.4-0.7,2.2c1.8-1.3,3.7-2.9,5.8-4.7s4-3.8,5.9-5.8c2-2.2,3.6-4.2,4.9-6.1c1.2-1.9,1.7-3.2,1.3-3.9
      c-0.4-0.8-1.4-0.7-3,0.4c-1.6,1-3.4,2.6-5.3,4.6c-1.4,1.6-2.9,3.4-4.3,5.3c-1.4,1.9-2.6,3.9-3.5,5.9
      C637.5,252.3,637.1,253,636.9,253.8z M676.6,231.3c0.7,0.2,1.4,0.6,1.9,1.2c0.6,0.6,0.9,1.4,1.1,2.2c0.2,0.8,0.1,1.5-0.4,2.2
      c-0.9,1-2.2,3-3.8,5.9s-3.3,6-4.9,9.3c-0.9,1.8-1.7,3.6-2.3,5.4c-0.7,1.8-1.2,3.3-1.5,4.7c-0.3,1.4-0.4,2.5-0.3,3.4
      s0.5,1.4,1.3,1.5c0.5,0.1,1.1-0.2,2-0.8s1.8-1.4,2.8-2.5c1-1.1,2.2-2.4,3.4-3.8c1.2-1.5,2.4-3,3.7-4.6c1.5-1.9,3-3.9,4.5-5.9
      c1.5-2,2.8-3.9,4.1-5.6c1.2-1.7,2.3-3.2,3.2-4.5c0.9-1.3,1.5-2.2,1.9-2.8c0.5-0.7,1.1-1,2-0.8s1.6,0.5,2.3,1.1
      c0.8,0.6,1.4,1.4,1.9,2.2c0.4,0.8,0.5,1.5,0.1,2.2c-0.8,1.1-1.6,2.9-2.5,5.4s-1.6,5-2.3,7.6c-0.3,1.4-0.6,2.8-0.8,4.1
      c-0.2,1.3-0.3,2.5-0.3,3.5s0.1,1.9,0.4,2.6s0.6,1.1,1.1,1.3c0.6,0.2,1.4-0.2,2.5-1s2.3-1.9,3.5-3.2c1.3-1.3,2.6-2.8,4.1-4.6
      c1.4-1.7,2.8-3.5,4.2-5.2c2-2.6,3.7-4.9,5.2-7c1.5-2.1,2.3-3.4,2.6-3.8c0.6-0.9,1.2-0.9,1.9,0c0.4,0.4,0.7,1,1,1.7
      c0.2,0.8,0.2,1.5-0.2,2.1c-0.3,0.6-1.1,2-2.5,4.1s-2.9,4.5-4.9,7.1c-1,1.4-2.1,2.9-3.3,4.3c-1.2,1.4-2.3,2.8-3.5,4
      c-1.2,1.2-2.4,2.3-3.6,3.2c-1.2,0.9-2.3,1.6-3.4,2c-2.1,0.9-4.1,0.9-5.9,0s-3.2-2.5-4-4.8c-0.4-1.1-0.6-2.4-0.6-3.8
      s0.1-2.8,0.4-4.2c0.2-1,0.4-2,0.6-2.9s0.4-1.7,0.6-2.4c0.2-0.8,0.5-1.6,0.7-2.3c-0.6,1.1-1.7,2.8-3.2,5c-1.5,2.2-3.2,4.5-5,6.8
      s-3.7,4.5-5.6,6.4s-3.7,3.4-5.3,4.3c-1.4,0.7-2.7,0.8-4,0.3c-1.3-0.5-2.4-1.4-3.2-2.7c-0.9-1.1-1.5-2.4-1.9-4
      c-0.4-1.5-0.5-3-0.3-4.4c0.2-1.8,0.7-3.8,1.4-5.8c0.7-2,1.5-4,2.3-6c1.6-3.5,3.3-6.8,5.2-9.8c1.8-3,3.3-5.4,4.3-7.1
      C675.4,231.4,675.9,231.2,676.6,231.3z"/>
  </g>
</svg>
